<svg width="24" height="25" viewBox="0 0 24 25" fill="none" xmlns="http://www.w3.org/2000/svg">
<path fill-rule="evenodd" clip-rule="evenodd" d="M8.39844 10.8544C8.39844 9.89962 8.77772 8.98394 9.45285 8.30881C10.128 7.63368 11.0437 7.25439 11.9984 7.25439C12.9532 7.25439 13.8689 7.63368 14.544 8.30881C15.2192 8.98394 15.5984 9.89962 15.5984 10.8544C15.5984 11.8092 15.2192 12.7248 14.544 13.4C13.8689 14.0751 12.9532 14.4544 11.9984 14.4544C11.0437 14.4544 10.128 14.0751 9.45285 13.4C8.77772 12.7248 8.39844 11.8092 8.39844 10.8544ZM11.9984 9.05439C11.521 9.05439 11.0632 9.24404 10.7256 9.5816C10.3881 9.91917 10.1984 10.377 10.1984 10.8544C10.1984 11.3318 10.3881 11.7896 10.7256 12.1272C11.0632 12.4648 11.521 12.6544 11.9984 12.6544C12.4758 12.6544 12.9337 12.4648 13.2712 12.1272C13.6088 11.7896 13.7984 11.3318 13.7984 10.8544C13.7984 10.377 13.6088 9.91917 13.2712 9.5816C12.9337 9.24404 12.4758 9.05439 11.9984 9.05439Z" fill="#222222"/>
<path fill-rule="evenodd" clip-rule="evenodd" d="M18.2026 19.4749C17.3479 20.2986 16.3387 20.9451 15.2332 21.3772C14.1276 21.8093 12.9475 22.0184 11.7608 21.9925C10.5741 21.9666 9.40418 21.7062 8.31851 21.2263C7.23284 20.7465 6.25282 20.0566 5.43488 19.1964C4.61695 18.3362 3.97724 17.3227 3.55262 16.2142C3.12799 15.1058 2.92682 13.9243 2.9607 12.7378C2.99457 11.5513 3.26282 10.3832 3.75 9.30076C4.23718 8.21835 4.93367 7.243 5.79935 6.43087C7.53251 4.80493 9.83841 3.93048 12.2139 3.9983C14.5894 4.06612 16.8416 5.07072 18.4792 6.79289C20.1167 8.51506 21.0067 10.815 20.9549 13.1909C20.9031 15.5668 19.9137 17.8257 18.2026 19.4749ZM6.40655 17.4841C5.55081 16.4272 5.01184 15.1497 4.85204 13.7992C4.69224 12.4488 4.91814 11.0807 5.50359 9.85336C6.08904 8.62599 7.01011 7.5895 8.16018 6.86387C9.31025 6.13825 10.6423 5.75315 12.0022 5.75315C13.362 5.75315 14.6941 6.13825 15.8441 6.86387C16.9942 7.5895 17.9153 8.62599 18.5007 9.85336C19.0862 11.0807 19.3121 12.4488 19.1523 13.7992C18.9925 15.1497 18.4535 16.4272 17.5978 17.4841C16.0556 16.1131 14.0644 15.3549 12.001 15.3529C9.93791 15.3552 7.94841 16.1134 6.40655 17.4841ZM7.70975 18.7357C8.94991 19.6584 10.4552 20.1556 12.001 20.1529C13.609 20.1529 15.0934 19.6249 16.2922 18.7357C15.0945 17.7162 13.5737 17.1553 12.001 17.1529C10.4282 17.1553 8.90739 17.7162 7.70975 18.7357Z" fill="#222222"/>
</svg>
